# 3ds Max Wavefront OBJ Exporter v0.97b - (c)2007 guruware
# File Created: 08.01.2016 16:34:48

mtllib 3d-model.mtl

#
# object Group_003
#

v  -22.4410 -0.0000 -17.7080
v  -22.4410 0.0000 17.7250
v  -23.6221 0.0000 17.7250
v  -23.5711 -0.0000 -17.7080
v  -23.6221 -0.0000 -16.5269
v  -23.6221 0.0000 16.5439
v  -23.6221 27.5591 17.7250
v  -23.6221 27.5591 16.5439
v  -23.6221 1.1811 16.5439
v  -23.6221 1.1811 -16.5269
v  -23.6221 27.5590 -16.5270
v  -23.5711 27.5590 -17.7081
v  -22.4410 1.1811 16.5439
v  -23.5711 1.1811 16.5439
v  -23.5711 27.5591 16.5439
v  -22.4410 27.5591 16.5439
v  -22.4410 1.1811 -16.5269
v  -23.5711 1.1811 -16.5269
v  -22.4410 27.5590 -16.5270
v  -23.5711 27.5590 -16.5270
v  -23.5711 0.0000 16.5439
v  -22.4410 1.1811 -17.7080
v  -22.4410 28.7402 -16.5270
v  -22.4410 28.7402 -17.7081
v  -22.4410 1.1811 17.7250
v  -22.4410 28.7402 17.7250
v  -22.4410 28.7402 16.5439
v  -23.6204 27.5591 16.5440
v  -23.6221 28.7402 16.5439
v  -23.5711 28.7402 16.5439
v  -23.6204 28.7402 16.5440
v  -23.6221 28.7402 -16.5270
v  -23.5711 28.7402 -17.7081
v  -23.6221 28.7402 17.7250
v  -23.6713 27.5590 -16.5269
v  -23.6713 28.7402 -16.5269
v  -23.6204 1.1811 16.5440
v  -23.6713 1.1811 -16.5269
v  -23.5728 27.5590 -16.5286
v  -34.2027 27.5590 -16.5439
v  -34.2027 28.7402 -16.5439
v  -23.5728 28.7402 -16.5286
v  -35.3821 27.5590 -17.7250
v  -35.3838 27.5590 -16.5456
v  -35.3821 28.7402 -17.7250
v  -35.3838 28.7402 -16.5456
v  -34.2503 27.5591 16.5286
v  -34.2503 28.7402 16.5286
v  -35.4331 28.7402 17.7080
v  -35.4314 28.7402 16.5269
v  -35.4331 27.5591 17.7080
v  -35.4314 27.5591 16.5269
# 52 vertices

vn 0.0000 1.0000 -0.0000
vn 1.0000 0.0000 -0.0000
vn 0.9991 0.0000 0.0431
vn 0.0000 0.0000 1.0000
vn 0.0000 -1.0000 0.0000
vn 0.0000 -0.0000 -1.0000
vn 1.0000 -0.0000 -0.0015
vn -1.0000 0.0000 -0.0000
vn -0.0015 -0.0000 -1.0000
vn 0.0015 0.0000 1.0000
vn -0.0014 0.0000 1.0000
vn 1.0000 0.0000 0.0014
vn 0.0014 -0.0000 -1.0000
# 13 vertex normals

vt 0.0000 1.9685 0.0000
vt 0.0000 0.0000 0.0000
vt 0.0656 0.0000 0.0000
vt 0.0628 1.9685 0.0000
vt 0.0656 1.9029 0.0000
vt 0.0656 0.0656 0.0000
vt 0.0000 1.5311 0.0000
vt -0.0656 1.5311 0.0000
vt -0.0656 0.0000 0.0000
vt -0.0656 0.0656 0.0000
vt -1.8983 0.0656 0.0000
vt -1.8983 1.5311 0.0000
vt -1.9640 1.5311 0.0000
vt -1.9640 -0.0000 0.0000
vt -1.8983 -0.0000 0.0000
vt 0.0000 0.0656 0.0000
vt 0.0628 0.0656 0.0000
vt 0.0628 1.5311 0.0000
vt 0.0000 1.9029 0.0000
vt -0.0628 1.9029 0.0000
vt -0.0628 0.0656 0.0000
vt -0.0628 1.5311 0.0000
vt -1.9030 0.0656 0.0000
vt -1.9030 -0.0000 0.0000
vt 1.9029 1.5311 0.0000
vt 1.9029 0.0656 0.0000
vt 1.9685 0.0656 0.0000
vt 1.9029 1.5967 0.0000
vt 1.9685 1.5967 0.0000
vt 1.9685 0.0000 0.0000
vt 0.0000 1.5967 0.0000
vt 0.0656 1.5967 0.0000
vt 0.0656 1.5311 0.0000
vt 0.0627 1.5967 0.0000
vt -0.0656 1.5967 0.0000
vt 0.0628 0.0000 0.0000
vt -0.0627 1.5967 0.0000
vt -0.0656 1.9029 0.0000
vt -0.0684 1.9029 0.0000
vt 0.6562 1.5311 0.0000
vt 0.6562 1.5967 0.0000
vt -1.9029 1.5311 0.0000
vt -1.9029 1.5967 0.0000
vt -1.9684 1.5967 0.0000
vt -1.9684 1.5311 0.0000
vt -0.0628 1.9685 0.0000
vt -0.7190 1.9694 0.0000
vt -0.6534 1.9038 0.0000
vt -0.7190 1.9039 0.0000
vt 0.7190 1.9694 0.0000
vt 0.0629 1.9030 0.0000
vt 0.6534 1.9038 0.0000
vt 0.7190 1.9039 0.0000
vt -0.6562 1.5311 0.0000
vt -0.6562 1.5967 0.0000
vt 0.7218 0.0009 0.0000
vt 0.6561 0.0665 0.0000
vt 0.7217 0.0666 0.0000
vt -0.6561 0.0665 0.0000
vt -0.7218 0.0009 0.0000
vt -0.7217 0.0666 0.0000
vt -0.7218 1.5311 0.0000
vt -0.7218 1.5967 0.0000
vt 0.7218 1.5311 0.0000
vt 0.7218 1.5967 0.0000
# 65 texture coords

g Group_003
usemtl Metal_Seamed
s off
f 4/4/1 3/3/1 2/2/1 1/1/1 
f 6/6/1 3/3/1 4/4/1 5/5/1 
f 6/9/2 8/8/2 7/7/2 3/2/2 
f 9/10/2 8/8/2 6/9/2 
f 4/14/3 12/13/3 11/12/3 10/11/3 
f 5/15/3 4/14/3 10/11/3 
f 16/7/4 15/18/4 14/17/4 13/16/4 
f 14/21/5 18/20/5 17/19/5 13/16/5 
f 20/22/6 19/7/6 17/16/6 18/21/6 
f 5/24/7 10/23/7 14/10/7 21/9/7 
f 5/24/2 10/23/2 9/10/2 6/9/2 
f 23/28/8 22/27/8 17/26/8 19/25/8 
f 24/29/8 22/27/8 23/28/8 
f 13/6/8 1/30/8 2/2/8 25/16/8 
f 22/27/8 1/30/8 13/6/8 17/26/8 
f 27/32/8 13/6/8 25/16/8 26/31/8 
f 16/33/8 13/6/8 27/32/8 
f 15/18/4 29/32/4 8/33/4 28/33/4 
f 31/32/4 29/32/4 15/18/4 30/34/4 
f 11/8/6 23/31/6 19/7/6 20/22/6 
f 32/35/6 23/31/6 11/8/6 
f 22/16/4 12/18/4 4/36/4 1/2/4 
f 33/34/4 12/18/4 22/16/4 24/31/4 
f 7/8/6 25/16/6 2/2/6 3/9/6 
f 34/35/6 26/31/6 25/16/6 7/8/6 
f 27/31/4 30/34/4 15/18/4 16/7/4 
f 36/35/9 32/37/9 11/22/9 35/8/9 
f 30/34/10 31/32/10 28/33/10 15/18/10 
f 15/18/10 28/33/10 37/6/10 14/17/10 
f 38/39/5 10/38/5 14/21/5 37/10/5 
f 35/8/9 11/22/9 10/21/9 38/10/9 
f 42/32/11 41/41/11 40/40/11 39/33/11 
f 12/45/12 33/44/12 42/43/12 39/42/12 
f 40/48/5 43/47/5 12/46/5 39/20/5 
f 44/49/5 43/47/5 40/48/5 
f 41/52/1 42/51/1 33/4/1 45/50/1 
f 46/53/1 41/52/1 45/50/1 
f 47/54/13 31/35/13 28/8/13 8/8/13 
f 29/35/13 31/35/13 47/54/13 48/55/13 
f 28/8/12 31/35/12 34/31/12 7/7/12 
f 49/56/1 34/3/1 31/6/1 29/6/1 
f 50/58/1 49/56/1 29/6/1 48/57/1 
f 28/10/5 7/9/5 8/10/5 
f 51/60/5 47/59/5 8/10/5 7/9/5 
f 52/61/5 47/59/5 51/60/5 
f 45/63/13 33/35/13 12/8/13 43/62/13 
f 43/45/12 45/44/12 46/43/12 44/42/12 
f 40/42/12 41/43/12 48/35/12 47/8/12 
f 41/41/11 46/65/11 44/64/11 40/40/11 
f 52/61/5 44/49/5 40/48/5 47/59/5 
f 50/58/1 48/57/1 41/52/1 46/53/1 
f 52/8/12 50/35/12 49/31/12 51/7/12 
f 44/42/12 46/43/12 50/35/12 52/8/12 
f 49/63/13 34/35/13 7/8/13 51/62/13 
# 45 polygons - 9 triangles

#
# object Group_001
#

v  22.4410 0.0000 -17.7080
v  22.4410 0.0000 17.7250
v  23.6221 0.0000 17.7250
v  23.5711 0.0000 -17.7080
v  23.6221 0.0000 -16.5269
v  23.6221 0.0000 16.5439
v  23.6221 27.5591 17.7250
v  23.6221 27.5591 16.5439
v  23.6221 1.1811 16.5439
v  23.6221 1.1811 -16.5269
v  23.6221 27.5591 -16.5269
v  23.5711 27.5591 -17.7080
v  22.4410 1.1811 16.5439
v  23.5711 1.1811 16.5439
v  23.5711 27.5591 16.5439
v  22.4410 27.5591 16.5439
v  22.4410 1.1811 -16.5269
v  23.5711 1.1811 -16.5269
v  22.4410 27.5591 -16.5269
v  23.5711 27.5591 -16.5269
v  23.5711 0.0000 16.5439
v  22.4410 1.1811 -17.7080
v  22.4410 28.7402 -16.5269
v  22.4410 28.7402 -17.7080
v  22.4410 1.1811 17.7250
v  22.4410 28.7402 17.7250
v  22.4410 28.7402 16.5439
v  23.6204 27.5591 16.5440
v  23.6221 28.7402 16.5439
v  23.5711 28.7402 16.5439
v  23.6204 28.7402 16.5440
v  23.6221 28.7402 -16.5269
v  23.5711 28.7402 -17.7080
v  23.6221 28.7402 17.7250
v  23.6713 27.5591 -16.5269
v  23.6713 28.7402 -16.5269
v  23.6204 1.1811 16.5440
v  23.6713 1.1811 -16.5269
v  23.5728 27.5591 -16.5286
v  34.2027 27.5591 -16.5438
v  34.2027 28.7402 -16.5438
v  23.5728 28.7402 -16.5286
v  35.3821 27.5591 -17.7250
v  35.3838 27.5591 -16.5455
v  35.3821 28.7402 -17.7250
v  35.3838 28.7402 -16.5455
v  34.2503 27.5591 16.5286
v  34.2503 28.7402 16.5286
v  35.4331 28.7402 17.7080
v  35.4314 28.7402 16.5269
v  35.4331 27.5591 17.7080
v  35.4314 27.5591 16.5269
# 52 vertices

vn 0.0000 1.0000 -0.0000
vn -1.0000 0.0000 -0.0000
vn -0.9991 -0.0000 0.0431
vn 0.0000 0.0000 1.0000
vn 0.0000 -1.0000 -0.0000
vn 0.0000 0.0000 -1.0000
vn -1.0000 -0.0000 -0.0015
vn 1.0000 0.0000 -0.0000
vn 0.0015 0.0000 -1.0000
vn -0.0015 -0.0000 1.0000
vn 0.0014 -0.0000 1.0000
vn -1.0000 0.0000 0.0014
vn -0.0014 0.0000 -1.0000
# 13 vertex normals

vt 0.0000 1.9685 0.0000
vt 0.0000 0.0000 0.0000
vt 0.0656 0.0000 0.0000
vt 0.0628 1.9685 0.0000
vt 0.0656 1.9029 0.0000
vt 0.0656 0.0656 0.0000
vt 0.0000 1.5311 0.0000
vt -0.0656 1.5311 0.0000
vt -0.0656 0.0000 0.0000
vt -0.0656 0.0656 0.0000
vt -1.8983 0.0656 0.0000
vt -1.8983 1.5311 0.0000
vt -1.9640 1.5311 0.0000
vt -1.9640 -0.0000 0.0000
vt -1.8983 -0.0000 0.0000
vt 0.0000 0.0656 0.0000
vt 0.0628 0.0656 0.0000
vt 0.0628 1.5311 0.0000
vt 0.0000 1.9029 0.0000
vt -0.0628 1.9029 0.0000
vt -0.0628 0.0656 0.0000
vt -0.0628 1.5311 0.0000
vt -1.9030 0.0656 0.0000
vt -1.9030 -0.0000 0.0000
vt 1.9029 1.5311 0.0000
vt 1.9029 0.0656 0.0000
vt 1.9685 0.0656 0.0000
vt 1.9029 1.5967 0.0000
vt 1.9685 1.5967 0.0000
vt 1.9685 0.0000 0.0000
vt 0.0000 1.5967 0.0000
vt 0.0656 1.5967 0.0000
vt 0.0656 1.5311 0.0000
vt 0.0627 1.5967 0.0000
vt -0.0656 1.5967 0.0000
vt 0.0628 0.0000 0.0000
vt -0.0627 1.5967 0.0000
vt -0.0656 1.9029 0.0000
vt -0.0684 1.9029 0.0000
vt 0.6562 1.5311 0.0000
vt 0.6562 1.5967 0.0000
vt -1.9029 1.5311 0.0000
vt -1.9029 1.5967 0.0000
vt -1.9684 1.5967 0.0000
vt -1.9684 1.5311 0.0000
vt -0.0628 1.9685 0.0000
vt -0.7190 1.9694 0.0000
vt -0.6534 1.9038 0.0000
vt -0.7190 1.9039 0.0000
vt 0.7190 1.9694 0.0000
vt 0.0629 1.9030 0.0000
vt 0.6534 1.9038 0.0000
vt 0.7190 1.9039 0.0000
vt -0.6562 1.5311 0.0000
vt -0.6562 1.5967 0.0000
vt 0.7218 0.0009 0.0000
vt 0.6561 0.0665 0.0000
vt 0.7217 0.0666 0.0000
vt -0.6561 0.0665 0.0000
vt -0.7218 0.0009 0.0000
vt -0.7217 0.0666 0.0000
vt -0.7218 1.5311 0.0000
vt -0.7218 1.5967 0.0000
vt 0.7218 1.5311 0.0000
vt 0.7218 1.5967 0.0000
# 65 texture coords

g Group_001
usemtl Metal_Seamed
s off
f 53/66/14 54/67/14 55/68/14 56/69/14 
f 57/70/14 56/69/14 55/68/14 58/71/14 
f 55/67/15 59/72/15 60/73/15 58/74/15 
f 58/74/15 60/73/15 61/75/15 
f 62/76/16 63/77/16 64/78/16 56/79/16 
f 62/76/16 56/79/16 57/80/16 
f 65/81/17 66/82/17 67/83/17 68/72/17 
f 65/81/18 69/84/18 70/85/18 66/86/18 
f 70/86/19 69/81/19 71/72/19 72/87/19 
f 73/74/20 66/75/20 62/88/20 57/89/20 
f 58/74/15 61/75/15 62/88/15 57/89/15 
f 71/90/21 69/91/21 74/92/21 75/93/21 
f 75/93/21 74/92/21 76/94/21 
f 77/81/21 54/67/21 53/95/21 65/71/21 
f 69/91/21 65/71/21 53/95/21 74/92/21 
f 78/96/21 77/81/21 65/71/21 79/97/21 
f 79/97/21 65/71/21 68/98/21 
f 80/98/17 60/98/17 81/97/17 67/83/17 
f 82/99/17 67/83/17 81/97/17 83/97/17 
f 72/87/19 71/72/19 75/96/19 63/73/19 
f 63/73/19 75/96/19 84/100/19 
f 53/67/17 56/101/17 64/83/17 74/81/17 
f 76/96/17 74/81/17 64/83/17 85/99/17 
f 55/74/19 54/67/19 77/81/19 59/73/19 
f 59/73/19 77/81/19 78/96/19 86/100/19 
f 68/72/17 67/83/17 82/99/17 79/96/17 
f 87/73/22 63/87/22 84/102/22 88/100/22 
f 67/83/23 80/98/23 83/97/23 82/99/23 
f 66/82/23 89/71/23 80/98/23 67/83/23 
f 89/75/18 66/86/18 62/103/18 90/104/18 
f 90/75/22 62/86/22 63/87/22 87/73/22 
f 91/98/24 92/105/24 93/106/24 94/97/24 
f 91/107/25 94/108/25 85/109/25 64/110/25 
f 91/85/18 64/111/18 95/112/18 92/113/18 
f 92/113/18 95/112/18 96/114/18 
f 97/115/14 85/69/14 94/116/14 93/117/14 
f 97/115/14 93/117/14 98/118/14 
f 60/73/26 80/73/26 83/100/26 99/119/26 
f 100/120/26 99/119/26 83/100/26 81/100/26 
f 59/72/25 86/96/25 83/100/25 80/73/25 
f 81/71/14 83/71/14 86/68/14 101/121/14 
f 100/122/14 81/71/14 101/121/14 102/123/14 
f 60/75/18 59/74/18 80/75/18 
f 59/74/18 60/75/18 99/124/18 103/125/18 
f 103/125/18 99/124/18 104/126/18 
f 95/127/26 64/73/26 85/100/26 97/128/26 
f 96/107/25 98/108/25 97/109/25 95/110/25 
f 99/73/25 100/100/25 93/108/25 92/107/25 
f 92/105/24 96/129/24 98/130/24 93/106/24 
f 99/124/18 92/113/18 96/114/18 104/126/18 
f 98/118/14 93/117/14 100/122/14 102/123/14 
f 103/72/25 101/96/25 102/100/25 104/73/25 
f 104/73/25 102/100/25 98/108/25 96/107/25 
f 103/127/26 59/73/26 86/100/26 101/128/26 
# 45 polygons - 9 triangles

#
# object Layer0_001
#

v  -35.4331 30.7087 17.7080
v  -35.4331 30.7087 -17.7250
v  35.4331 30.7087 -17.7250
v  35.4331 30.7087 17.7080
v  -35.4331 28.7402 17.7080
v  -35.4331 28.7402 -17.7250
v  35.4331 28.7402 -17.7250
v  35.4331 28.7402 17.7080
v  -22.8346 28.7402 17.7080
# 9 vertices

vn 0.0000 -1.0000 -0.0000
vn 1.0000 0.0000 -0.0000
vn 0.0000 0.0000 1.0000
vn -1.0000 0.0000 -0.0000
vn 0.0000 0.0000 -1.0000
vn 0.0000 1.0000 -0.0000
# 6 vertex normals

vt 0.0000 0.0000 0.0000
# 1 texture coords

g Layer0_001
usemtl skp_front_default
s off
f 105/131/27 106/131/27 107/131/27 108/131/27 
f 105/131/28 109/131/28 110/131/28 106/131/28 
f 110/131/29 111/131/29 107/131/29 106/131/29 
f 112/131/30 108/131/30 107/131/30 111/131/30 
f 113/131/31 109/131/31 105/131/31 112/131/31 
f 112/131/31 105/131/31 108/131/31 
f 110/131/32 109/131/32 113/131/32 111/131/32 
f 111/131/32 113/131/32 112/131/32 
# 6 polygons - 2 triangles

